<svg t="1710990504607" class="icon" viewBox="0 0 1024 1024" version="1.1" xmlns="http://www.w3.org/2000/svg" p-id="1235" width="16" height="16"><path d="M691.2 762.88h-221.056a109.44 109.44 0 0 1-107.552 83.648A109.344 109.344 0 0 1 255.04 762.88H147.488v-167.264h53.76v113.472H261.12a102.4 102.4 0 0 1 101.504-77.728 103.968 103.968 0 0 1 101.504 71.808h173.312v-108.8H147.84v-53.632h489.6V266.72h0.256V213.088h0.32V177.312h160.8v53.632h-107.328v35.776h161.056l107.552 143.456v352.544h-53.76a109.44 109.44 0 0 1-107.552 83.648A109.344 109.344 0 0 1 691.2 762.88z m65.76-53.792a45.92 45.92 0 0 0-12 29.856c0 11.968 0 18.016 6.048 23.936a53.216 53.216 0 0 0 47.744 29.856 53.408 53.408 0 0 0 48-29.856 36.32 36.32 0 0 0 5.888-23.936c0-11.968-5.888-17.888-11.936-29.856a60.384 60.384 0 0 0-41.824-23.936 60.512 60.512 0 0 0-42.016 23.936z m-436.192 0a45.92 45.92 0 0 0-12 29.856c0 11.968 0 18.016 6.048 23.936a47.2 47.2 0 0 0 47.744 29.856 53.408 53.408 0 0 0 48-29.856 36.32 36.32 0 0 0 5.888-23.936c0-11.968-5.888-17.888-11.936-29.856a60.384 60.384 0 0 0-41.824-23.936 45.248 45.248 0 0 0-42.016 23.936z m585.6 0v-174.144h-161.248v-160.736h125.056l-35.616-47.456h-143.328v382.4h6.016a102.592 102.592 0 0 1 101.568-77.728 123.712 123.712 0 0 1 107.424 77.664z m-107.328-227.776h107.328v-53.632H799.04z m-639.36 23.808L64 243.008h525.76v262.048z m41.888-53.632h340.576V296.736H141.824z" p-id="1236" fill="#d81e06"></path></svg>